<svg xmlns="http://www.w3.org/2000/svg" width="256" height="256" viewBox="0 0 100 100"><rect width="100" height="100" rx="20" fill="#cc5500"></rect><path d="M15.42 77.90L15.42 77.90Q14.88 78.44 14.73 78.36L14.73 78.36Q14.58 78.29 14.73 78.02Q14.88 77.75 14.96 77.59L14.96 77.59Q15.58 76.90 15.92 76.56Q16.27 76.21 16.73 75.82L16.73 75.82Q14.88 73.36 14.04 70.55Q13.19 67.74 13.04 64.74Q12.88 61.73 13.31 58.65Q13.73 55.57 14.42 52.65L14.42 52.65Q15.81 46.87 17.62 41.37Q19.43 35.86 20.66 30.78L20.66 30.78Q18.20 31.24 16.23 32.01Q14.27 32.78 13.65 33.70L13.65 33.70Q13.42 34.09 13.23 34.01Q13.04 33.94 13.34 33.32L13.34 33.32Q13.96 32.01 15.58 30.97Q17.19 29.93 19.27 29.24Q21.35 28.55 23.78 28.16Q26.20 27.78 28.44 27.85L28.44 27.85Q33.44 28.01 36.79 29.78Q40.14 31.55 40.22 35.01L40.22 35.01Q40.22 37.17 38.72 39.33Q37.21 41.48 35.10 43.37Q32.98 45.25 30.59 46.76Q28.21 48.26 26.51 49.10L26.51 49.10L26.20 50.18Q27.36 49.18 29.28 48.57Q31.21 47.95 33.33 47.95Q35.44 47.95 37.48 48.68Q39.52 49.41 41.06 51.03L41.06 51.03Q43.14 53.34 43.72 56.30Q44.30 59.27 43.37 62.12L43.37 62.12Q42.53 64.97 40.53 66.78Q38.52 68.59 36.44 69.51L36.44 69.51Q36.21 69.66 35.60 69.86Q34.98 70.05 34.83 69.82L34.83 69.82Q34.75 69.66 35.21 69.24Q35.67 68.82 35.91 68.66L35.91 68.66Q37.98 67.28 39.45 64.89Q40.91 62.50 41.26 59.92Q41.60 57.34 40.68 54.96Q39.76 52.57 37.06 51.26L37.06 51.26Q35.98 50.72 34.21 50.45Q32.44 50.18 30.67 50.30Q28.90 50.41 27.40 51.11Q25.90 51.80 25.28 53.26L25.28 53.26Q26.67 52.42 28.44 51.95Q30.21 51.49 32.02 51.53Q33.83 51.57 35.44 52.22Q37.06 52.88 38.14 54.19L38.14 54.19Q39.45 55.80 39.64 57.57Q39.83 59.35 39.25 61.04Q38.68 62.73 37.41 64.20Q36.14 65.66 34.52 66.66L34.52 66.66Q32.36 67.97 29.75 69.24Q27.13 70.51 24.51 71.86Q21.89 73.21 19.50 74.71Q17.12 76.21 15.42 77.90ZM24.66 55.88L24.66 55.88Q23.28 59.35 22.39 62.85Q21.51 66.35 20.43 69.28L20.43 69.28Q20.04 70.28 19.89 70.20L19.89 70.20Q19.66 70.13 19.66 69.78Q19.66 69.43 19.66 69.05L19.66 69.05Q19.89 63.20 21.35 57.46Q22.82 51.72 24.51 45.87L24.51 45.87Q25.59 42.25 26.55 38.44Q27.51 34.63 27.67 30.24L27.67 30.24L26.36 30.24Q26.43 32.32 26.24 34.36Q26.05 36.40 25.66 37.86L25.66 37.86Q24.59 42.02 23.05 46.49Q21.51 50.95 19.81 54.96L19.81 54.96Q19.74 55.11 19.47 55.69Q19.20 56.27 18.97 56.19L18.97 56.19Q18.81 56.11 18.77 55.50Q18.73 54.88 18.81 54.65L18.81 54.65Q18.89 53.72 19.16 52.34Q19.43 50.95 19.70 49.49Q19.97 48.03 20.31 46.64Q20.66 45.25 20.97 44.25L20.97 44.25Q21.04 43.87 21.39 42.48Q21.74 41.10 22.12 39.13Q22.51 37.17 22.93 34.90Q23.35 32.63 23.66 30.47L23.66 30.47Q23.05 30.47 22.74 30.55L22.74 30.55Q22.35 33.40 21.62 36.32Q20.89 39.25 19.97 42.25Q19.04 45.25 18.12 48.22Q17.19 51.18 16.50 54.19L16.50 54.19Q15.89 56.73 15.58 59.50Q15.27 62.27 15.27 65.01Q15.27 67.74 15.73 70.36Q16.19 72.97 17.19 75.36L17.19 75.36L17.89 74.67Q17.66 74.13 17.43 73.36Q17.19 72.59 17.04 71.51L17.04 71.51Q16.89 70.66 16.85 69.36Q16.81 68.05 16.89 66.81Q16.96 65.58 17.12 64.74Q17.27 63.89 17.58 63.89L17.58 63.89Q17.66 63.89 17.77 64.27Q17.89 64.66 17.96 65.20Q18.04 65.74 18.12 66.20Q18.20 66.66 18.20 66.89L18.20 66.89Q18.27 67.58 18.35 68.43Q18.43 69.28 18.54 70.20Q18.66 71.13 18.77 72.01Q18.89 72.90 19.12 73.51L19.12 73.51Q20.89 71.90 22.89 70.63Q24.89 69.36 26.86 68.28Q28.82 67.20 30.67 66.20Q32.52 65.20 33.90 64.20L33.90 64.20Q36.29 62.58 36.98 60.08Q37.68 57.57 36.14 55.57L36.14 55.57Q35.14 54.26 33.40 53.72Q31.67 53.19 29.86 53.30Q28.05 53.42 26.59 54.11Q25.13 54.80 24.66 55.88ZM36.91 44.10L36.91 44.10Q37.06 44.18 36.56 44.91Q36.06 45.64 35.91 45.95L35.91 45.95Q38.52 45.56 40.56 44.10Q42.60 42.64 43.84 40.60Q45.07 38.56 45.38 36.13Q45.68 33.70 44.91 31.24L44.91 31.24Q44.14 28.78 42.37 27.08Q40.60 25.39 38.29 24.31Q35.98 23.23 33.29 22.77Q30.59 22.31 27.90 22.35Q25.20 22.39 22.74 22.85Q20.27 23.31 18.43 24.16L18.43 24.16Q18.04 24.31 18.00 24.31Q17.96 24.31 17.89 24.23L17.89 24.23Q17.81 24.00 18.27 23.69L18.27 23.69Q20.20 22.00 23.16 21.15Q26.13 20.31 29.40 20.31Q32.67 20.31 35.98 21.19Q39.29 22.08 41.95 23.89Q44.61 25.70 46.34 28.51Q48.07 31.32 48.23 35.09L48.23 35.09Q48.30 37.40 47.61 39.29Q46.92 41.17 45.76 42.64Q44.61 44.10 43.10 45.14Q41.60 46.18 39.99 46.87L39.99 46.87Q42.53 48.03 44.38 50.45Q46.22 52.88 46.99 55.26L46.99 55.26Q47.92 58.42 47.42 61.27Q46.92 64.12 45.72 66.43Q44.53 68.74 43.03 70.40Q41.53 72.05 40.45 72.74L40.45 72.74Q38.22 74.21 35.91 75.02Q33.60 75.82 31.36 76.25Q29.13 76.67 27.09 76.82Q25.05 76.98 23.43 77.06L23.43 77.06Q22.20 77.21 22.20 76.98L22.20 76.98Q22.12 76.82 22.62 76.71Q23.12 76.59 23.51 76.52L23.51 76.52Q26.51 75.98 29.44 75.05Q32.36 74.13 35.37 72.59L35.37 72.59Q36.83 71.82 38.41 70.78Q39.99 69.74 41.33 68.32Q42.68 66.89 43.64 65.12Q44.61 63.35 44.91 61.19L44.91 61.19Q45.30 58.50 44.80 55.84Q44.30 53.19 42.22 50.72L42.22 50.72Q40.22 48.33 38.02 47.49Q35.83 46.64 33.29 46.79L33.29 46.79Q32.67 46.79 32.67 46.72L32.67 46.72Q32.67 46.56 33.52 46.18Q34.37 45.79 34.60 45.64L34.60 45.64Q35.29 45.18 36.06 44.56Q36.83 43.95 36.91 44.10ZM37.83 35.32L37.83 35.32Q37.83 32.86 35.21 31.74Q32.59 30.62 27.97 30.24L27.97 30.24Q28.51 32.63 28.67 34.63Q28.82 36.63 28.63 38.59Q28.44 40.56 27.94 42.68Q27.44 44.79 26.82 47.33L26.82 47.33Q28.44 46.56 30.36 44.99Q32.29 43.41 33.94 41.67Q35.60 39.94 36.71 38.21Q37.83 36.48 37.83 35.32ZM27.20 23.54L27.20 23.54Q29.82 23.39 33.17 24.12Q36.52 24.85 39.22 26.47L39.22 26.47Q40.60 27.31 41.53 28.55Q42.45 29.78 42.95 31.13Q43.45 32.47 43.53 33.86Q43.61 35.24 43.22 36.40L43.22 36.40Q43.14 36.55 43.07 36.82Q42.99 37.09 42.84 37.36Q42.68 37.63 42.53 37.82Q42.37 38.02 42.22 37.94L42.22 37.94Q41.99 37.94 42.03 37.40Q42.07 36.86 42.22 36.25L42.22 36.25Q42.60 34.09 41.87 32.47Q41.14 30.86 39.68 29.74Q38.22 28.62 36.29 27.93Q34.37 27.24 32.32 26.85Q30.28 26.47 28.36 26.43Q26.43 26.39 25.05 26.54L25.05 26.54Q23.12 26.77 21.24 27.28Q19.35 27.78 17.73 28.39Q16.12 29.01 14.96 29.70Q13.81 30.39 13.34 31.01L13.34 31.01Q12.88 31.63 12.81 31.39L12.81 31.39Q12.81 31.16 12.96 30.70L12.96 30.70Q13.50 29.16 14.96 27.89Q16.42 26.62 18.35 25.70Q20.27 24.77 22.58 24.23Q24.89 23.69 27.20 23.54ZM23.43 75.44L23.43 75.44Q20.89 76.44 19.39 77.21Q17.89 77.98 16.42 79.21L16.42 79.21Q16.27 79.29 16.12 79.52Q15.96 79.75 15.81 79.67L15.81 79.67Q15.65 79.60 15.81 79.25Q15.96 78.90 16.12 78.75L16.12 78.75Q16.89 77.67 18.12 76.63Q19.35 75.59 21.58 74.67L21.58 74.67Q22.35 74.36 23.32 74.01Q24.28 73.67 25.16 73.44Q26.05 73.21 26.63 73.13Q27.20 73.05 27.36 73.28L27.36 73.28Q27.44 73.44 26.90 73.74Q26.36 74.05 25.66 74.40Q24.97 74.75 24.32 75.05Q23.66 75.36 23.43 75.44ZM54.39 77.90L54.39 77.90Q53.85 78.44 53.69 78.36L53.69 78.36Q53.54 78.29 53.69 78.02Q53.85 77.75 53.92 77.59L53.92 77.59Q54.54 76.90 54.89 76.56Q55.23 76.21 55.69 75.82L55.69 75.82Q53.85 73.36 53.00 70.55Q52.15 67.74 52.00 64.74Q51.84 61.73 52.27 58.65Q52.69 55.57 53.38 52.65L53.38 52.65Q54.77 46.87 56.58 41.37Q58.39 35.86 59.62 30.78L59.62 30.78Q57.16 31.24 55.19 32.01Q53.23 32.78 52.61 33.70L52.61 33.70Q52.38 34.09 52.19 34.01Q52.00 33.94 52.31 33.32L52.31 33.32Q52.92 32.01 54.54 30.97Q56.16 29.93 58.24 29.24Q60.31 28.55 62.74 28.16Q65.17 27.78 67.40 27.85L67.40 27.85Q72.40 28.01 75.75 29.78Q79.10 31.55 79.18 35.01L79.18 35.01Q79.18 37.17 77.68 39.33Q76.18 41.48 74.06 43.37Q71.94 45.25 69.55 46.76Q67.17 48.26 65.47 49.10L65.47 49.10L65.17 50.18Q66.32 49.18 68.25 48.57Q70.17 47.95 72.29 47.95Q74.41 47.95 76.45 48.68Q78.49 49.41 80.03 51.03L80.03 51.03Q82.11 53.34 82.68 56.30Q83.26 59.27 82.34 62.12L82.34 62.12Q81.49 64.97 79.49 66.78Q77.49 68.59 75.41 69.51L75.41 69.51Q75.18 69.66 74.56 69.86Q73.94 70.05 73.79 69.82L73.79 69.82Q73.71 69.66 74.17 69.24Q74.64 68.82 74.87 68.66L74.87 68.66Q76.95 67.28 78.41 64.89Q79.87 62.50 80.22 59.92Q80.57 57.34 79.64 54.96Q78.72 52.57 76.02 51.26L76.02 51.26Q74.94 50.72 73.17 50.45Q71.40 50.18 69.63 50.30Q67.86 50.41 66.36 51.11Q64.86 51.80 64.24 53.26L64.24 53.26Q65.63 52.42 67.40 51.95Q69.17 51.49 70.98 51.53Q72.79 51.57 74.41 52.22Q76.02 52.88 77.10 54.19L77.10 54.19Q78.41 55.80 78.60 57.57Q78.79 59.35 78.22 61.04Q77.64 62.73 76.37 64.20Q75.10 65.66 73.48 66.66L73.48 66.66Q71.33 67.97 68.71 69.24Q66.09 70.51 63.47 71.86Q60.85 73.21 58.47 74.71Q56.08 76.21 54.39 77.90ZM63.63 55.88L63.63 55.88Q62.24 59.35 61.35 62.85Q60.47 66.35 59.39 69.28L59.39 69.28Q59.01 70.28 58.85 70.20L58.85 70.20Q58.62 70.13 58.62 69.78Q58.62 69.43 58.62 69.05L58.62 69.05Q58.85 63.20 60.31 57.46Q61.78 51.72 63.47 45.87L63.47 45.87Q64.55 42.25 65.51 38.44Q66.47 34.63 66.63 30.24L66.63 30.24L65.32 30.24Q65.40 32.32 65.20 34.36Q65.01 36.40 64.63 37.86L64.63 37.86Q63.55 42.02 62.01 46.49Q60.47 50.95 58.77 54.96L58.77 54.96Q58.70 55.11 58.43 55.69Q58.16 56.27 57.93 56.19L57.93 56.19Q57.77 56.11 57.73 55.50Q57.70 54.88 57.77 54.65L57.77 54.65Q57.85 53.72 58.12 52.34Q58.39 50.95 58.66 49.49Q58.93 48.03 59.27 46.64Q59.62 45.25 59.93 44.25L59.93 44.25Q60.01 43.87 60.35 42.48Q60.70 41.10 61.08 39.13Q61.47 37.17 61.89 34.90Q62.32 32.63 62.62 30.47L62.62 30.47Q62.01 30.47 61.70 30.55L61.70 30.55Q61.32 33.40 60.58 36.32Q59.85 39.25 58.93 42.25Q58.00 45.25 57.08 48.22Q56.16 51.18 55.46 54.19L55.46 54.19Q54.85 56.73 54.54 59.50Q54.23 62.27 54.23 65.01Q54.23 67.74 54.69 70.36Q55.16 72.97 56.16 75.36L56.16 75.36L56.85 74.67Q56.62 74.13 56.39 73.36Q56.16 72.59 56.00 71.51L56.00 71.51Q55.85 70.66 55.81 69.36Q55.77 68.05 55.85 66.81Q55.93 65.58 56.08 64.74Q56.23 63.89 56.54 63.89L56.54 63.89Q56.62 63.89 56.73 64.27Q56.85 64.66 56.93 65.20Q57.00 65.74 57.08 66.20Q57.16 66.66 57.16 66.89L57.16 66.89Q57.23 67.58 57.31 68.43Q57.39 69.28 57.50 70.20Q57.62 71.13 57.73 72.01Q57.85 72.90 58.08 73.51L58.08 73.51Q59.85 71.90 61.85 70.63Q63.86 69.36 65.82 68.28Q67.78 67.20 69.63 66.20Q71.48 65.20 72.87 64.20L72.87 64.20Q75.25 62.58 75.95 60.08Q76.64 57.57 75.10 55.57L75.10 55.57Q74.10 54.26 72.36 53.72Q70.63 53.19 68.82 53.30Q67.01 53.42 65.55 54.11Q64.09 54.80 63.63 55.88ZM75.87 44.10L75.87 44.10Q76.02 44.18 75.52 44.91Q75.02 45.64 74.87 45.95L74.87 45.95Q77.49 45.56 79.53 44.10Q81.57 42.64 82.80 40.60Q84.03 38.56 84.34 36.13Q84.65 33.70 83.88 31.24L83.88 31.24Q83.11 28.78 81.34 27.08Q79.56 25.39 77.25 24.31Q74.94 23.23 72.25 22.77Q69.55 22.31 66.86 22.35Q64.16 22.39 61.70 22.85Q59.24 23.31 57.39 24.16L57.39 24.16Q57.00 24.31 56.96 24.31Q56.93 24.31 56.85 24.23L56.85 24.23Q56.77 24.00 57.23 23.69L57.23 23.69Q59.16 22.00 62.12 21.15Q65.09 20.31 68.36 20.31Q71.63 20.31 74.94 21.19Q78.26 22.08 80.91 23.89Q83.57 25.70 85.30 28.51Q87.03 31.32 87.19 35.09L87.19 35.09Q87.26 37.40 86.57 39.29Q85.88 41.17 84.72 42.64Q83.57 44.10 82.07 45.14Q80.57 46.18 78.95 46.87L78.95 46.87Q81.49 48.03 83.34 50.45Q85.19 52.88 85.96 55.26L85.96 55.26Q86.88 58.42 86.38 61.27Q85.88 64.12 84.68 66.43Q83.49 68.74 81.99 70.40Q80.49 72.05 79.41 72.74L79.41 72.74Q77.18 74.21 74.87 75.02Q72.56 75.82 70.32 76.25Q68.09 76.67 66.05 76.82Q64.01 76.98 62.39 77.06L62.39 77.06Q61.16 77.21 61.16 76.98L61.16 76.98Q61.08 76.82 61.58 76.71Q62.09 76.59 62.47 76.52L62.47 76.52Q65.47 75.98 68.40 75.05Q71.33 74.13 74.33 72.59L74.33 72.59Q75.79 71.82 77.37 70.78Q78.95 69.74 80.30 68.32Q81.64 66.89 82.61 65.12Q83.57 63.35 83.88 61.19L83.88 61.19Q84.26 58.50 83.76 55.84Q83.26 53.19 81.18 50.72L81.18 50.72Q79.18 48.33 76.98 47.49Q74.79 46.64 72.25 46.79L72.25 46.79Q71.63 46.79 71.63 46.72L71.63 46.72Q71.63 46.56 72.48 46.18Q73.33 45.79 73.56 45.64L73.56 45.64Q74.25 45.18 75.02 44.56Q75.79 43.95 75.87 44.10ZM76.79 35.32L76.79 35.32Q76.79 32.86 74.17 31.74Q71.56 30.62 66.94 30.24L66.94 30.24Q67.48 32.63 67.63 34.63Q67.78 36.63 67.59 38.59Q67.40 40.56 66.90 42.68Q66.40 44.79 65.78 47.33L65.78 47.33Q67.40 46.56 69.32 44.99Q71.25 43.41 72.90 41.67Q74.56 39.94 75.68 38.21Q76.79 36.48 76.79 35.32ZM66.17 23.54L66.17 23.54Q68.78 23.39 72.13 24.12Q75.48 24.85 78.18 26.47L78.18 26.47Q79.56 27.31 80.49 28.55Q81.41 29.78 81.91 31.13Q82.41 32.47 82.49 33.86Q82.57 35.24 82.18 36.40L82.18 36.40Q82.11 36.55 82.03 36.82Q81.95 37.09 81.80 37.36Q81.64 37.63 81.49 37.82Q81.34 38.02 81.18 37.94L81.18 37.94Q80.95 37.94 80.99 37.40Q81.03 36.86 81.18 36.25L81.18 36.25Q81.57 34.09 80.83 32.47Q80.10 30.86 78.64 29.74Q77.18 28.62 75.25 27.93Q73.33 27.24 71.29 26.85Q69.25 26.47 67.32 26.43Q65.40 26.39 64.01 26.54L64.01 26.54Q62.09 26.77 60.20 27.28Q58.31 27.78 56.70 28.39Q55.08 29.01 53.92 29.70Q52.77 30.39 52.31 31.01L52.31 31.01Q51.84 31.63 51.77 31.39L51.77 31.39Q51.77 31.16 51.92 30.70L51.92 30.70Q52.46 29.16 53.92 27.89Q55.39 26.62 57.31 25.70Q59.24 24.77 61.55 24.23Q63.86 23.69 66.17 23.54ZM62.39 75.44L62.39 75.44Q59.85 76.44 58.35 77.21Q56.85 77.98 55.39 79.21L55.39 79.21Q55.23 79.29 55.08 79.52Q54.92 79.75 54.77 79.67L54.77 79.67Q54.62 79.60 54.77 79.25Q54.92 78.90 55.08 78.75L55.08 78.75Q55.85 77.67 57.08 76.63Q58.31 75.59 60.55 74.67L60.55 74.67Q61.32 74.36 62.28 74.01Q63.24 73.67 64.13 73.44Q65.01 73.21 65.59 73.13Q66.17 73.05 66.32 73.28L66.32 73.28Q66.40 73.44 65.86 73.74Q65.32 74.05 64.63 74.40Q63.93 74.75 63.28 75.05Q62.62 75.36 62.39 75.44Z" fill="#fff"></path></svg>